<svg id="surface1" xmlns="http://www.w3.org/2000/svg" width="91.362" height="107.289" viewBox="0 0 91.362 107.289">
  <path id="Path_331" data-name="Path 331" d="M91.256,29.109l0-.083c-.047-1.031-.078-2.121-.1-3.334A11.371,11.371,0,0,0,80.45,14.552C68.114,13.864,58.571,9.841,50.418,1.894l-.07-.066a6.866,6.866,0,0,0-9.332,0l-.07.066c-8.154,7.947-17.7,11.97-30.032,12.659A11.37,11.37,0,0,0,.209,25.693c-.018,1.2-.05,2.3-.1,3.333l0,.194C-.132,41.8-.43,57.453,4.807,71.662a54.028,54.028,0,0,0,12.962,20.19c6.516,6.359,15.05,11.407,25.365,15a7.855,7.855,0,0,0,1.04.283,7.678,7.678,0,0,0,3.019,0,7.88,7.88,0,0,0,1.044-.285c10.3-3.6,18.828-8.654,25.338-15.011A54.1,54.1,0,0,0,86.535,71.648C91.792,57.4,91.5,41.712,91.256,29.109ZM80.629,69.469c-5.523,14.976-16.8,25.261-34.471,31.441a1.58,1.58,0,0,1-.2.054,1.413,1.413,0,0,1-.553,0,1.567,1.567,0,0,1-.2-.053c-17.69-6.168-28.973-16.448-34.493-31.425C5.887,56.388,6.161,42.018,6.4,29.34l0-.07c.049-1.09.082-2.231.1-3.485a5.054,5.054,0,0,1,4.763-4.947,55.236,55.236,0,0,0,18.748-4.124A49.05,49.05,0,0,0,45.293,6.45a.581.581,0,0,1,.779,0A49.068,49.068,0,0,0,61.35,16.715,55.238,55.238,0,0,0,80.1,20.839a5.053,5.053,0,0,1,4.762,4.947c.019,1.26.052,2.4.1,3.484C85.2,41.962,85.47,56.344,80.629,69.469Zm0,0" transform="translate(0 0.001)" fill="#8dc63f"/>
  <path id="Path_332" data-name="Path 332" d="M117.136,128.41a26.738,26.738,0,1,0,26.738,26.738A26.768,26.768,0,0,0,117.136,128.41Zm0,47.18a20.442,20.442,0,1,1,20.442-20.443A20.465,20.465,0,0,1,117.136,175.59Zm0,0" transform="translate(-71.456 -101.502)" fill="#8dc63f"/>
  <path id="Path_333" data-name="Path 333" d="M174.836,212.914l-12.419,12.419-3.371-3.371a3.148,3.148,0,0,0-4.452,4.451l5.6,5.6a3.148,3.148,0,0,0,4.451,0l14.646-14.645a3.148,3.148,0,0,0-4.452-4.451Zm0,0" transform="translate(-121.471 -167.568)" fill="#8dc63f"/>
</svg>
