<svg xmlns="http://www.w3.org/2000/svg" width="29.452" height="29.433" viewBox="0 0 29.452 29.433">
  <g id="phone" transform="translate(0 -0.188)">
    <g id="Group_801" data-name="Group 801" transform="translate(0 0.188)">
      <path id="Path_2008" data-name="Path 2008" d="M29.438,23.416A1.424,1.424,0,0,1,29,24.663l-4.147,4.115a2.334,2.334,0,0,1-.733.53,3.028,3.028,0,0,1-.888.281q-.031,0-.187.016t-.405.016a14.374,14.374,0,0,1-1.918-.2,14.563,14.563,0,0,1-3.242-1,27.218,27.218,0,0,1-4.35-2.385A32.429,32.429,0,0,1,7.956,21.67a34.166,34.166,0,0,1-3.617-4.116,29.323,29.323,0,0,1-2.307-3.632A19.564,19.564,0,0,1,.722,10.9,16.046,16.046,0,0,1,.13,8.56,7.723,7.723,0,0,1,.005,7.016q.031-.561.031-.624A3.031,3.031,0,0,1,.317,5.5a2.337,2.337,0,0,1,.53-.733L4.994.625a1.373,1.373,0,0,1,1-.437,1.163,1.163,0,0,1,.717.234A2.168,2.168,0,0,1,7.239,1l3.336,6.329a1.517,1.517,0,0,1,.156,1.091,1.943,1.943,0,0,1-.53,1L8.673,10.945a.52.52,0,0,0-.109.2.769.769,0,0,0-.047.234,5.63,5.63,0,0,0,.561,1.5A13.738,13.738,0,0,0,10.232,14.7a20.252,20.252,0,0,0,2.214,2.479A20.652,20.652,0,0,0,14.94,19.41a14.4,14.4,0,0,0,1.824,1.169,4.848,4.848,0,0,0,1.122.452l.39.078a.743.743,0,0,0,.2-.047.521.521,0,0,0,.2-.109l1.777-1.808a1.91,1.91,0,0,1,1.31-.5,1.629,1.629,0,0,1,.842.187h.031l6.017,3.554A1.568,1.568,0,0,1,29.438,23.416Z" transform="translate(0 -0.188)" fill="#fff"/>
    </g>
  </g>
</svg>
