<svg xmlns="http://www.w3.org/2000/svg" width="107" height="107" viewBox="0 0 107 107">
  <g id="safe" transform="translate(-450 -1559)">
    <g id="Lock" transform="translate(422.25 1581.4)">
      <g id="Group_779" data-name="Group 779" transform="translate(60.75)">
        <path id="Path_334" data-name="Path 334" d="M98.658,23.794h-.8V16.681a16.681,16.681,0,1,0-33.362,0,1.527,1.527,0,1,0,3.053,0,13.628,13.628,0,0,1,27.255,0v7.113H63.7a2.954,2.954,0,0,0-2.952,2.952V45.757A8.857,8.857,0,0,0,69.594,54.6H92.766a8.857,8.857,0,0,0,8.844-8.844V26.746A2.954,2.954,0,0,0,98.658,23.794Zm-.1,21.962a5.794,5.794,0,0,1-5.79,5.79H69.605a5.794,5.794,0,0,1-5.79-5.79V26.848H98.557V45.757Z" transform="translate(-60.75 0)" fill="#8dc63f" stroke="#8dc63f" stroke-width="2"/>
        <path id="Path_335" data-name="Path 335" d="M197.892,311.983a6.942,6.942,0,1,0-6.942-6.941A6.949,6.949,0,0,0,197.892,311.983Zm0-10.185a3.237,3.237,0,1,1-3.23,3.244A3.235,3.235,0,0,1,197.892,301.8Z" transform="translate(-177.225 -265.848)" fill="#8dc63f" stroke="#8dc63f" stroke-width="1"/>
      </g>
    </g>
    <g id="Ellipse_328" data-name="Ellipse 328" transform="translate(450 1559)" fill="none" stroke="#8dc63f" stroke-width="6">
      <circle cx="53.5" cy="53.5" r="53.5" stroke="none"/>
      <circle cx="53.5" cy="53.5" r="50.5" fill="none"/>
    </g>
  </g>
</svg>
