<svg xmlns="http://www.w3.org/2000/svg" width="152.741" height="69.246" viewBox="0 0 152.741 69.246">
  <g id="mail_delivery" data-name="mail delivery" transform="translate(0 -139.942)">
    <g id="Group_796" data-name="Group 796" transform="translate(16.021 139.942)">
      <g id="Group_795" data-name="Group 795">
        <path id="Path_2004" data-name="Path 2004" d="M187.382,139.942H88.789a3.043,3.043,0,0,0-3.043,3.043v5.738h-29a3.043,3.043,0,0,0,0,6.085h29v39.514H68.414a3.043,3.043,0,0,0,0,6.085H85.747v5.738a3.043,3.043,0,0,0,3.043,3.043h98.593a3.042,3.042,0,0,0,3.043-3.043v-63.16A3.042,3.042,0,0,0,187.382,139.942Zm-7.506,6.085-41.786,34.3-41.6-34.3Zm4.463,57.076H91.832V150.07l44.318,36.548a3.042,3.042,0,0,0,3.866,0l44.323-36.385Z" transform="translate(-53.704 -139.942)" fill="#fff"/>
      </g>
    </g>
    <g id="Group_798" data-name="Group 798" transform="translate(0 171.214)">
      <g id="Group_797" data-name="Group 797">
        <path id="Path_2005" data-name="Path 2005" d="M35.7,244.768H3.043a3.043,3.043,0,0,0,0,6.085H35.7a3.043,3.043,0,1,0,0-6.085Z" transform="translate(0 -244.768)" fill="#fff"/>
      </g>
    </g>
    <g id="Group_800" data-name="Group 800" transform="translate(16.021 194.322)">
      <g id="Group_799" data-name="Group 799">
        <path id="Path_2006" data-name="Path 2006" d="M58.374,322.227H56.748a3.043,3.043,0,0,0,0,6.085h1.626a3.043,3.043,0,0,0,0-6.085Z" transform="translate(-53.705 -322.227)" fill="#fff"/>
      </g>
    </g>
  </g>
</svg>
